<svg width="134" height="140" viewBox="0 0 134 140" fill="none" xmlns="http://www.w3.org/2000/svg">
    <path
        d="M60.7421 7.44501C64.2311 4.06971 69.7683 4.06971 73.2574 7.44502L80.0961 14.0608C82.5346 16.4198 85.9254 17.5215 89.2849 17.0464L98.7061 15.7138C103.513 15.0339 107.992 18.2886 108.831 23.0701L110.475 32.442C111.061 35.7839 113.157 38.6683 116.154 40.2585L124.559 44.7181C128.848 46.9933 130.559 52.2595 128.427 56.6208L124.248 65.1692C122.758 68.2174 122.758 71.7826 124.248 74.8308L128.427 83.3792C130.559 87.7405 128.848 93.0067 124.559 95.2819L116.154 99.7415C113.157 101.332 111.061 104.216 110.475 107.558L108.831 116.93C107.992 121.711 103.513 124.966 98.7061 124.286L89.2849 122.954C85.9254 122.478 82.5346 123.58 80.0961 125.939L73.2574 132.555C69.7683 135.93 64.2311 135.93 60.7421 132.555L53.9034 125.939C51.4648 123.58 48.0741 122.478 44.7146 122.954L35.2934 124.286C30.4867 124.966 26.007 121.711 25.1683 116.93L23.5243 107.558C22.9381 104.216 20.8425 101.332 17.8453 99.7415L9.44014 95.2819C5.15185 93.0067 3.44076 87.7405 5.5727 83.3792L9.75137 74.8308C11.2414 71.7826 11.2414 68.2174 9.75137 65.1692L5.57269 56.6208C3.44076 52.2595 5.15186 46.9933 9.44014 44.7181L17.8453 40.2585C20.8425 38.6683 22.9381 35.7839 23.5243 32.442L25.1683 23.0701C26.007 18.2886 30.4867 15.0339 35.2934 15.7138L44.7146 17.0464C48.0741 17.5216 51.4648 16.4198 53.9034 14.0608L60.7421 7.44501Z"
        fill="#D8F055" stroke="black" stroke-width="2" />
    <path
        d="M33.8398 68.4776C33.1538 68.4776 32.4538 68.3726 31.7398 68.1626C31.0258 67.9526 30.6548 67.8476 30.6268 67.8476C30.5428 67.8476 30.4448 67.8896 30.3328 67.9736C30.2208 68.0576 30.1648 68.1556 30.1648 68.2676H29.6818V64.9496H30.1438C30.2978 65.7756 30.7598 66.4546 31.5298 66.9866C32.2998 67.5046 33.0278 67.7636 33.7138 67.7636C34.4138 67.7636 34.9738 67.5816 35.3938 67.2176C35.8278 66.8396 36.0448 66.3496 36.0448 65.7476C36.0448 65.5376 35.9748 65.3346 35.8348 65.1386C35.7088 64.9286 35.4988 64.7186 35.2048 64.5086C34.9248 64.2846 34.6728 64.1026 34.4488 63.9626C34.2248 63.8086 33.8958 63.6056 33.4618 63.3536C33.0418 63.1016 32.7408 62.9196 32.5588 62.8076C30.6548 61.6316 29.7028 60.3716 29.7028 59.0276C29.7028 58.2016 30.0808 57.4526 30.8368 56.7806C31.5928 56.1086 32.4398 55.7726 33.3778 55.7726C33.7978 55.7726 34.3088 55.8776 34.9108 56.0876C35.5128 56.2976 35.8488 56.4026 35.9188 56.4026C36.0868 56.4026 36.1708 56.2626 36.1708 55.9826H36.6538L36.8638 59.1536H36.4018C36.3178 58.5796 35.9398 57.9916 35.2678 57.3896C34.5958 56.7876 33.9728 56.4866 33.3988 56.4866C32.7688 56.4866 32.2928 56.6896 31.9708 57.0956C31.6488 57.4876 31.4878 57.9076 31.4878 58.3556C31.4878 58.5376 31.5508 58.7196 31.6768 58.9016C31.8028 59.0696 32.0058 59.2586 32.2858 59.4686C32.5658 59.6786 32.8108 59.8536 33.0208 59.9936C33.2308 60.1196 33.5528 60.3086 33.9868 60.5606C34.4208 60.8126 34.7218 60.9876 34.8898 61.0856C35.8558 61.6736 36.6118 62.2826 37.1578 62.9126C37.7038 63.5426 37.9768 64.2916 37.9768 65.1596C37.9768 66.1956 37.5568 67.0076 36.7168 67.5956C35.8768 68.1836 34.9178 68.4776 33.8398 68.4776ZM38.6684 55.9826H49.5254V58.0196H49.0844C49.0844 57.3476 48.8394 56.9066 48.3494 56.6966H45.4304V67.4066C45.5564 67.6866 45.9974 67.8266 46.7534 67.8266V68.2676H41.4404V67.8266C42.1964 67.8266 42.6374 67.6866 42.7634 67.4066V56.6966H39.8444C39.3544 56.9066 39.1094 57.3476 39.1094 58.0196H38.6684V55.9826ZM50.5538 68.2676V67.8266C51.3098 67.8266 51.7508 67.6866 51.8768 67.4066V56.8436C51.7508 56.5636 51.3098 56.4236 50.5538 56.4236V55.9826H55.8668V56.4236C55.1108 56.4236 54.6698 56.5636 54.5438 56.8436V67.4066C54.6698 67.6866 55.1108 67.8266 55.8668 67.8266V68.2676H50.5538ZM63.8128 56.4866C62.6368 56.4866 61.7268 56.9696 61.0828 57.9356C60.4528 58.9016 60.1378 60.2036 60.1378 61.8416C60.1378 63.7456 60.4808 65.2086 61.1668 66.2306C61.8528 67.2526 62.7628 67.7636 63.8968 67.7636C64.5828 67.7636 65.2058 67.5326 65.7658 67.0706C66.3398 66.5946 66.7318 66.0696 66.9418 65.4956L67.8028 65.7476C67.4808 66.5176 66.9698 67.1686 66.2698 67.7006C65.5838 68.2186 64.6528 68.4776 63.4768 68.4776C61.6008 68.4776 60.0888 67.8686 58.9408 66.6506C57.7928 65.4326 57.2188 63.9836 57.2188 62.3036C57.2188 60.3576 57.8768 58.7826 59.1928 57.5786C60.5088 56.3746 62.0418 55.7726 63.7918 55.7726C64.1978 55.7726 64.7018 55.8776 65.3038 56.0876C65.9058 56.2976 66.2488 56.4026 66.3328 56.4026C66.5008 56.4026 66.5848 56.2626 66.5848 55.9826H67.0678L67.2358 58.9436H66.7738C66.6898 58.3696 66.3258 57.8166 65.6818 57.2846C65.0378 56.7526 64.4148 56.4866 63.8128 56.4866ZM69.0108 68.2676V67.8266C69.7668 67.8266 70.2078 67.6866 70.3338 67.4066V56.8436C70.2078 56.5636 69.7668 56.4236 69.0108 56.4236V55.9826H74.2818V56.4236C73.5258 56.4236 73.0848 56.5636 72.9588 56.8436V67.4066C73.0848 67.6866 73.5258 67.8266 74.2818 67.8266V68.2676H69.0108ZM77.0748 68.2676V67.8266C77.4108 67.8266 77.6698 67.8056 77.8518 67.7636L73.0638 61.6736L78.2088 56.5706C78.0128 56.4726 77.6558 56.4236 77.1378 56.4236V55.9826H80.4348V56.4236C80.3088 56.4236 80.1968 56.4306 80.0988 56.4446C80.0008 56.4446 79.9098 56.4586 79.8258 56.4866C79.7418 56.5146 79.6718 56.5356 79.6158 56.5496C79.5598 56.5636 79.5038 56.5916 79.4478 56.6336C79.3918 56.6756 79.3498 56.7036 79.3218 56.7176C79.3078 56.7316 79.2728 56.7666 79.2168 56.8226L79.1328 56.9066L75.3108 60.6656L80.5818 67.4906C80.7638 67.7146 81.2048 67.8266 81.9048 67.8266V68.2676H77.0748ZM82.1768 68.2676V67.8266C82.9328 67.8266 83.3738 67.6866 83.4998 67.4066V56.8436C83.3738 56.5636 82.9328 56.4236 82.1768 56.4236V55.9826H90.8498V58.0196H90.4088C90.4088 57.2636 90.2688 56.8226 89.9888 56.6966H86.1668V61.5266H88.5818C88.8618 61.4006 89.0018 60.9596 89.0018 60.2036H89.4428V63.5636H89.0018C89.0018 62.8076 88.8618 62.3666 88.5818 62.2406H86.1668V67.5536H90.4298C90.7798 67.3996 91.0948 66.9586 91.3748 66.2306H91.7948L91.2908 68.2676H82.1768ZM92.7384 68.2676V67.8266C93.4944 67.8266 93.9354 67.6866 94.0614 67.4066V56.8436C93.9354 56.5636 93.4944 56.4236 92.7384 56.4236V55.9826H97.9044C99.6404 55.9826 100.956 56.2976 101.852 56.9276C102.748 57.5576 103.196 58.2786 103.196 59.0906C103.196 59.8606 102.965 60.5396 102.503 61.1276C102.041 61.7016 101.355 62.1216 100.445 62.3876L103.238 67.3856C103.378 67.6796 103.84 67.8266 104.624 67.8266V68.2676H103.721C102.615 68.2676 101.796 68.2046 101.264 68.0786C100.746 67.9526 100.354 67.6516 100.088 67.1756L97.5474 62.6816H96.7284V67.4066C96.8544 67.6866 97.2954 67.8266 98.0514 67.8266V68.2676H92.7384ZM96.7284 56.6966V61.9676H97.4214C98.3734 61.9676 99.1014 61.7576 99.6054 61.3376C100.109 60.9036 100.361 60.1616 100.361 59.1116C100.361 58.2996 100.074 57.6976 99.5004 57.3056C98.9404 56.8996 98.1634 56.6966 97.1694 56.6966H96.7284ZM48.9671 75.8016C48.8271 75.5496 48.3931 75.4236 47.6651 75.4236V74.9826H51.1091V75.4236C50.3391 75.4236 49.8981 75.5706 49.7861 75.8646L45.7121 87.2676H44.0111L39.8951 75.8646C39.7971 75.5706 39.3491 75.4236 38.5511 75.4236V74.9826H43.8851V75.4236C43.2411 75.4236 42.8351 75.5076 42.6671 75.6756L45.8801 84.4746L48.9671 75.8016ZM51.5587 87.2676V86.8266C52.3147 86.8266 52.7557 86.6866 52.8817 86.4066V75.8436C52.7557 75.5636 52.3147 75.4236 51.5587 75.4236V74.9826H60.2317V77.0196H59.7907C59.7907 76.2636 59.6507 75.8226 59.3707 75.6966H55.5487V80.5266H57.9637C58.2437 80.4006 58.3837 79.9596 58.3837 79.2036H58.8247V82.5636H58.3837C58.3837 81.8076 58.2437 81.3666 57.9637 81.2406H55.5487V86.5536H59.8117C60.1617 86.3996 60.4767 85.9586 60.7567 85.2306H61.1767L60.6727 87.2676H51.5587ZM62.1202 87.2676V86.8266C62.8762 86.8266 63.3172 86.6866 63.4432 86.4066V75.8436C63.3172 75.5636 62.8762 75.4236 62.1202 75.4236V74.9826H67.2862C69.0222 74.9826 70.3382 75.2976 71.2342 75.9276C72.1302 76.5576 72.5782 77.2786 72.5782 78.0906C72.5782 78.8606 72.3472 79.5396 71.8852 80.1276C71.4232 80.7016 70.7372 81.1216 69.8272 81.3876L72.6202 86.3856C72.7602 86.6796 73.2222 86.8266 74.0062 86.8266V87.2676H73.1032C71.9972 87.2676 71.1782 87.2046 70.6462 87.0786C70.1282 86.9526 69.7362 86.6516 69.4702 86.1756L66.9292 81.6816H66.1102V86.4066C66.2362 86.6866 66.6772 86.8266 67.4332 86.8266V87.2676H62.1202ZM66.1102 75.6966V80.9676H66.8032C67.7552 80.9676 68.4832 80.7576 68.9872 80.3376C69.4912 79.9036 69.7432 79.1616 69.7432 78.1116C69.7432 77.2996 69.4562 76.6976 68.8822 76.3056C68.3222 75.8996 67.5452 75.6966 66.5512 75.6966H66.1102ZM78.8544 87.4776C78.1684 87.4776 77.4684 87.3726 76.7544 87.1626C76.0404 86.9526 75.6694 86.8476 75.6414 86.8476C75.5574 86.8476 75.4594 86.8896 75.3474 86.9736C75.2354 87.0576 75.1794 87.1556 75.1794 87.2676H74.6964V83.9496H75.1584C75.3124 84.7756 75.7744 85.4546 76.5444 85.9866C77.3144 86.5046 78.0424 86.7636 78.7284 86.7636C79.4284 86.7636 79.9884 86.5816 80.4084 86.2176C80.8424 85.8396 81.0594 85.3496 81.0594 84.7476C81.0594 84.5376 80.9894 84.3346 80.8494 84.1386C80.7234 83.9286 80.5134 83.7186 80.2194 83.5086C79.9394 83.2846 79.6874 83.1026 79.4634 82.9626C79.2394 82.8086 78.9104 82.6056 78.4764 82.3536C78.0564 82.1016 77.7554 81.9196 77.5734 81.8076C75.6694 80.6316 74.7174 79.3716 74.7174 78.0276C74.7174 77.2016 75.0954 76.4526 75.8514 75.7806C76.6074 75.1086 77.4544 74.7726 78.3924 74.7726C78.8124 74.7726 79.3234 74.8776 79.9254 75.0876C80.5274 75.2976 80.8634 75.4026 80.9334 75.4026C81.1014 75.4026 81.1854 75.2626 81.1854 74.9826H81.6684L81.8784 78.1536H81.4164C81.3324 77.5796 80.9544 76.9916 80.2824 76.3896C79.6104 75.7876 78.9874 75.4866 78.4134 75.4866C77.7834 75.4866 77.3074 75.6896 76.9854 76.0956C76.6634 76.4876 76.5024 76.9076 76.5024 77.3556C76.5024 77.5376 76.5654 77.7196 76.6914 77.9016C76.8174 78.0696 77.0204 78.2586 77.3004 78.4686C77.5804 78.6786 77.8254 78.8536 78.0354 78.9936C78.2454 79.1196 78.5674 79.3086 79.0014 79.5606C79.4354 79.8126 79.7364 79.9876 79.9044 80.0856C80.8704 80.6736 81.6264 81.2826 82.1724 81.9126C82.7184 82.5426 82.9914 83.2916 82.9914 84.1596C82.9914 85.1956 82.5714 86.0076 81.7314 86.5956C80.8914 87.1836 79.9324 87.4776 78.8544 87.4776ZM84.3507 87.2676V86.8266C85.1067 86.8266 85.5477 86.6866 85.6737 86.4066V75.8436C85.5477 75.5636 85.1067 75.4236 84.3507 75.4236V74.9826H93.0237V77.0196H92.5827C92.5827 76.2636 92.4427 75.8226 92.1627 75.6966H88.3407V80.5266H90.7557C91.0357 80.4006 91.1757 79.9596 91.1757 79.2036H91.6167V82.5636H91.1757C91.1757 81.8076 91.0357 81.3666 90.7557 81.2406H88.3407V86.5536H92.6037C92.9537 86.3996 93.2687 85.9586 93.5487 85.2306H93.9687L93.4647 87.2676H84.3507Z"
        fill="black" />
</svg>