<svg viewBox="0 0 30 30" fill="none" xmlns="http://www.w3.org/2000/svg">
  <path
    d="M16.1049 3.165C15.6724 2.3475 14.3274 2.3475 13.8949 3.165L2.64495 24.415C2.54368 24.6055 2.49347 24.8189 2.49922 25.0345C2.50497 25.2502 2.56649 25.4607 2.67777 25.6454C2.78904 25.8302 2.94629 25.9831 3.1342 26.089C3.3221 26.195 3.53424 26.2504 3.74995 26.25H26.2499C26.4655 26.2505 26.6775 26.195 26.8653 26.0891C27.0531 25.9833 27.2102 25.8305 27.3214 25.6458C27.4325 25.4611 27.4939 25.2508 27.4996 25.0353C27.5053 24.8198 27.455 24.6065 27.3537 24.4163L16.1049 3.165ZM16.2499 22.5H13.7499V20H16.2499V22.5ZM13.7499 17.5V11.25H16.2499L16.2512 17.5H13.7499Z"
    fill="#CF0000" />
</svg>