<svg width="20" height="20" viewBox="0 0 20 20" fill="none" xmlns="http://www.w3.org/2000/svg">
  <path
    d="M14.9292 8C14.8558 8.0002 14.7831 7.98578 14.7153 7.95759C14.6475 7.9294 14.5859 7.888 14.5342 7.83577L12.1636 5.4581C12.0588 5.35299 12 5.21044 12 5.06182C12 4.91319 12.0588 4.77065 12.1636 4.66554L13.3492 3.4767C13.6683 3.17074 14.0928 3 14.5342 3C14.9756 3 15.4001 3.17074 15.7192 3.4767L16.5093 4.26926C16.8235 4.58459 17 5.01222 17 5.4581C17 5.90398 16.8235 6.3316 16.5093 6.64693L15.3237 7.83577C15.272 7.88793 15.2105 7.9293 15.1428 7.95749C15.0751 7.98567 15.0025 8.00012 14.9292 8ZM13.3486 5.06182L14.9292 6.64693L15.7203 5.85437C15.8251 5.74926 15.8839 5.60672 15.8839 5.4581C15.8839 5.30947 15.8251 5.16693 15.7203 5.06182L14.9292 4.26926C14.8229 4.16723 14.6814 4.11029 14.5342 4.11029C14.387 4.11029 14.2456 4.16723 14.1392 4.26926L13.3486 5.06182Z"
    fill="black" />
  <path
    d="M8.08898 13C7.92315 12.9994 7.75962 12.9611 7.61079 12.888C7.46195 12.8148 7.33172 12.7088 7.22995 12.5779C7.12818 12.4469 7.05755 12.2945 7.02341 12.1323C6.98927 11.97 6.99251 11.802 7.03289 11.6412L7.51095 9.72896C7.5834 9.44117 7.73213 9.17825 7.94147 8.96789L12.7493 4.15997C12.8518 4.05754 12.9907 4 13.1356 4C13.2805 4 13.4194 4.05754 13.5219 4.15997L15.84 6.4776C15.9425 6.58006 16 6.719 16 6.86388C16 7.00875 15.9425 7.14769 15.84 7.25015L11.0322 12.0581C10.8223 12.2683 10.5592 12.4174 10.2711 12.4897L8.35888 12.9678C8.27058 12.9895 8.17993 13.0004 8.08898 13ZM13.1378 5.31715L8.71565 9.7388C8.6458 9.80895 8.59632 9.89676 8.5725 9.99285L8.0939 11.9051L10.0061 11.4265C10.1021 11.4024 10.1897 11.3528 10.2596 11.2828L14.6818 6.8606L13.1378 5.31715Z"
    fill="black" />
  <path
    d="M13.2917 17H5.70833C4.9903 16.9991 4.30193 16.7135 3.7942 16.2058C3.28648 15.6981 3.00086 15.0097 3 14.2917V6.70833C3.00086 5.9903 3.28648 5.30193 3.7942 4.7942C4.30193 4.28648 4.9903 4.00086 5.70833 4H10.93C11.0737 4 11.2114 4.05707 11.313 4.15865C11.4146 4.26023 11.4717 4.39801 11.4717 4.54167C11.4717 4.68533 11.4146 4.8231 11.313 4.92468C11.2114 5.02627 11.0737 5.08333 10.93 5.08333H5.70833C5.27736 5.08333 4.86403 5.25454 4.55928 5.55928C4.25454 5.86403 4.08333 6.27736 4.08333 6.70833V14.2917C4.08333 14.7226 4.25454 15.136 4.55928 15.4407C4.86403 15.7455 5.27736 15.9167 5.70833 15.9167H13.2917C13.7226 15.9167 14.136 15.7455 14.4407 15.4407C14.7455 15.136 14.9167 14.7226 14.9167 14.2917V9.20542C14.9167 9.06176 14.9737 8.92398 15.0753 8.8224C15.1769 8.72082 15.3147 8.66375 15.4583 8.66375C15.602 8.66375 15.7398 8.72082 15.8414 8.8224C15.9429 8.92398 16 9.06176 16 9.20542V14.2917C15.9991 15.0097 15.7135 15.6981 15.2058 16.2058C14.6981 16.7135 14.0097 16.9991 13.2917 17Z"
    fill="black" />
</svg>