<svg width="462" height="310" viewBox="0 0 462 310" fill="none" xmlns="http://www.w3.org/2000/svg">
    <path
        d="M104.162 157.131C96.4376 174.939 95.8713 195.645 102.289 213.958C108.078 230.445 119.508 245.024 134.532 254.037C149.555 263.05 168.114 266.334 185.207 262.365C201.702 258.449 216.03 248.326 225.181 234.123C228.512 228.899 231.329 222.938 236.655 219.735C248.359 212.681 265.252 222.702 276.596 215.099C282.64 211.05 284.861 203.252 285.479 196.028C286.097 188.805 285.55 181.342 287.959 174.501C292.501 161.615 306.096 154.27 313.683 142.883C324.099 127.243 321.712 106.493 316.452 88.4818C312.714 75.6842 307.48 62.8534 297.945 53.4835C286.471 42.1843 269.708 37.1919 253.559 37.6521C237.41 38.1123 221.765 43.587 207.344 50.8326C197.588 55.733 187.727 62.0619 183.249 71.9841C178.574 82.3775 180.624 94.9874 175.161 104.968C170.72 113.068 162.036 117.991 153.323 121.19C144.61 124.39 135.387 126.322 127.151 130.593C112.934 137.957 102.656 152.411 100.391 168.202"
        fill="#FFE5C5" />
    <path
        d="M110.363 160.654C100.462 183.646 102.416 210.836 115.4 232.238C121.301 242.045 129.366 250.391 138.985 256.644C149.394 263.305 161.387 267.116 173.752 267.689C197.07 268.742 219.667 256.916 232 237.201C235.094 232.252 237.859 226.575 243.048 223.446C247.641 220.677 253.171 220.581 258.372 220.942C268.095 221.62 279.895 224.153 286.772 215.243C294.452 205.302 290.766 191.827 293.693 180.476C296.543 169.431 305.989 162.289 313.569 154.443C317.467 150.412 320.917 146.03 323.237 140.902C325.491 135.768 326.831 130.284 327.198 124.695C328.119 112.685 325.569 100.598 322.016 89.181C318.444 77.6941 313.455 66.2182 304.875 57.5183C296.795 49.3339 285.909 44.3084 274.639 42.2392C262.18 39.9566 249.374 41.3262 237.255 44.8164C230.788 46.7229 224.477 49.1206 218.379 51.9884C212.938 54.5141 207.541 57.2532 202.618 60.692C198.177 63.7993 194.076 67.5436 191.203 72.1752C187.998 77.3296 186.866 83.2719 186.059 89.2031C185.237 95.2669 184.674 101.559 182.009 107.163C179.418 112.626 174.866 116.812 169.721 119.894C158.691 126.521 145.544 127.994 134.11 133.686C124.265 138.615 116.222 146.899 111.325 156.696C108.954 161.437 107.351 166.52 106.576 171.758C106.554 171.931 106.821 172.005 106.846 171.832C108.53 160.776 113.799 150.571 121.852 142.768C125.907 138.828 130.605 135.601 135.746 133.225C141.809 130.416 148.29 128.678 154.623 126.635C164.987 123.322 176.258 118.535 181.673 108.466C187.413 97.8146 184.793 84.8108 190.426 74.1118C195.863 63.803 206.864 57.7834 217.039 52.9383C229.146 47.169 242.115 42.7547 255.562 41.6428C267.466 40.6561 279.721 42.427 290.51 47.6661C295.773 50.1906 300.565 53.5897 304.679 57.7171C308.95 62.0468 312.367 67.1423 315.128 72.536C317.919 77.996 320.054 83.7652 321.86 89.6118C323.688 95.372 325.1 101.254 326.087 107.214C327.912 118.834 327.734 131.315 322.386 142.061C317.482 151.947 308.347 158.375 301.24 166.534C297.909 170.381 295.052 174.696 293.634 179.63C291.806 185.995 292.191 192.692 291.68 199.227C291.254 204.651 290.055 210.372 286.746 214.834C283.437 219.296 278.299 221.27 272.844 221.55C263.261 222.021 252.394 217.975 243.448 222.912C238.736 225.489 235.897 230.249 233.21 234.693C230.201 239.671 226.832 244.314 222.698 248.433C214.621 256.497 204.563 262.318 193.524 265.318C169.547 271.742 143.482 263.499 126.371 245.959C109.189 228.342 101.417 203.023 105.355 178.82C106.356 172.615 108.119 166.557 110.603 160.779C110.674 160.617 110.433 160.477 110.363 160.639V160.654Z"
        fill="#FCEBD5" />
    <path
        d="M142.945 105.447C147.594 108.087 153.805 106.161 157.503 102.314C161.2 98.4662 162.888 93.1462 164.117 87.9918C164.727 85.4146 165.249 82.6828 164.487 80.1387C163.724 77.5946 161.307 75.3525 158.665 75.6949C156.392 75.9931 154.734 78.0475 153.909 80.1755C153.083 82.3035 152.835 84.6193 152.002 86.7474C151.243 88.6438 150.042 90.3338 148.497 91.678C146.953 93.0222 145.11 93.9822 143.119 94.479C141.542 94.8471 139.888 94.9355 138.363 95.4841C136.838 96.0326 135.383 97.2218 135.176 98.8234C134.95 100.594 136.368 102.251 138.037 102.91C139.707 103.569 141.157 105.583 142.949 105.487"
        fill="#FCEBD5" />
    <path
        d="M225.651 261.065C229.952 259.158 233.098 256.256 236.303 252.678C237.465 251.382 239.331 251.698 239.964 253.34C240.746 255.518 241.056 257.836 240.873 260.141C240.69 262.447 240.018 264.688 238.902 266.716C236.044 271.709 230.592 274.378 225.651 273.549C223.008 273.108 220.14 271.274 220.602 267.603C220.68 267.018 220.843 266.448 221.087 265.91C222.101 263.66 223.896 262.339 225.651 261.057"
        fill="#FCEBD5" />
    <path
        d="M339.667 125.57C338.775 128.092 337.868 130.151 336.814 132.606C335.759 135.062 335.862 138.445 338.168 139.811C340.345 141.096 343.15 139.878 345.134 138.317C349.45 134.933 352.334 130.064 353.218 124.67C354.102 119.275 352.921 113.747 349.909 109.176C348.799 107.479 347.381 105.895 345.53 105.045C343.68 104.194 341.329 104.205 339.741 105.483C337.561 107.243 337.561 110.582 338.302 113.281C339.042 115.98 340.363 118.645 340.097 121.436"
        fill="#FCEBD5" />
    <path
        d="M200.204 28.9005C208.99 20.7444 220.608 16.2863 232.624 16.46C234.53 16.4931 236.514 16.6735 238.176 17.6344C239.838 18.5954 241.015 20.5503 240.537 22.3838C240.06 24.2173 238.128 25.3292 236.248 25.5722C234.367 25.8152 232.472 25.4028 230.585 25.2335C225.104 24.7666 219.649 26.3717 215.306 29.7289C213.085 31.4629 211.197 33.6315 208.802 35.1262C206.408 36.621 203.206 37.3353 200.782 35.8884C198.357 34.4414 197.772 30.3032 200.241 28.9336"
        fill="#FCEBD5" />
    <path
        d="M263.06 199.762C267.92 189.652 268.649 178.305 269.182 167.322C269.715 156.339 270.215 145.037 274.705 134.768C280.471 121.573 292.034 111.813 303.338 102.888C314.642 93.964 326.516 84.8665 333.445 72.2014C340.374 59.5363 340.655 42.1144 330.158 33.6023L330.025 33.5066C318.525 26.3604 302.028 32.2475 292.219 42.8545C282.411 53.4615 277.577 67.5771 272.728 81.0964C267.879 94.6156 261.965 105.396 251.26 115.079C242.947 122.6 232.713 129.997 222.449 134.043C212.185 138.089 201.607 142.43 193.553 150.268C185.499 158.107 180.558 170.407 184.492 180.355C184.492 180.355 190.414 218.763 237.369 217.997C248.14 217.824 258.197 209.857 263.06 199.762Z"
        fill="#005CCF" />
    <path
        d="M205.838 208.034C205.838 208.034 227.165 159.149 252.204 137.01C277.244 114.872 317.115 47.5449 317.115 47.5449"
        stroke="#121111" stroke-width="1.44" stroke-miterlimit="10" />
    <path d="M293.932 52.1504L292.078 86.7401" stroke="#121111" stroke-width="1.44" stroke-miterlimit="10" />
    <path d="M214.646 189.59L258.692 171.141" stroke="#121111" stroke-width="1.44" stroke-miterlimit="10" />
    <path d="M233.196 137.01L230.412 162.377" stroke="#121111" stroke-width="1.44" stroke-miterlimit="10" />
    <path d="M288.371 93.1972L311.09 86.2793" stroke="#121111" stroke-width="1.44" stroke-miterlimit="10" />
    <path
        d="M191.318 167.012C185.84 162.13 178.918 160.017 172.193 158.073C165.468 156.129 158.531 154.185 152.894 149.546C145.651 143.585 141.49 134.013 137.804 124.705C134.117 115.398 130.401 105.704 123.691 98.9923C116.98 92.2806 106.202 89.615 99.1991 95.8665L99.1176 95.9475C92.8032 103.09 93.7544 115.626 98.7475 124.098C103.741 132.57 111.702 137.993 119.286 143.346C126.87 148.699 132.611 154.424 136.856 163.389C140.188 170.362 143.078 178.672 143.889 186.54C144.7 194.408 145.684 202.522 149.23 209.348C152.776 216.174 159.594 221.424 166.415 220.025C166.415 220.025 191.214 221.269 198.428 187.825C200.083 180.159 196.796 171.894 191.318 167.012Z"
        fill="#FF6D35" />
    <path
        d="M187.087 208.799C187.087 208.799 160.241 186.738 150.603 165.833C140.964 144.929 105.713 107.092 105.713 107.092"
        stroke="#121111" stroke-width="1.41" stroke-miterlimit="10" />
    <path d="M104.781 124.197L125.938 130.412" stroke="#121111" stroke-width="1.41" stroke-miterlimit="10" />
    <path d="M177.082 199.934L172.844 166.059" stroke="#121111" stroke-width="1.44" stroke-miterlimit="10" />
    <path d="M147.494 179.328L162.777 184.891" stroke="#121111" stroke-width="1.41" stroke-miterlimit="10" />
    <path d="M129.339 133.963L128.766 116.857" stroke="#121111" stroke-width="1.41" stroke-miterlimit="10" />
    <g style="mix-blend-mode:multiply">
        <path
            d="M256.72 225.239C260.052 228.214 250.058 241.405 217.897 241.405C185.736 241.405 148.834 225.662 148.834 221.2C148.834 216.738 170.842 217.382 203.003 217.382C235.164 217.382 250.398 219.628 256.72 225.239Z"
            fill="#E3E3E3" />
    </g>
    <path d="M251.379 229.855L226.925 214.785L224.045 121.995L234.868 121.148L251.379 229.855Z" fill="#FFB75B" />
    <path d="M207.566 238.011L226.762 214.65L251.379 229.856L207.566 238.011Z" fill="#DE9247" />
    <path d="M207.566 238.01L226.713 215.202L224.389 122.891H213.91L207.566 238.01Z" fill="#F19F4E" />
    <path d="M213.912 122.891L168.289 121.15L169.422 110.631L215.111 113.823L213.912 122.891Z" fill="#FBF3F5" />
    <path d="M215.109 113.823L213.91 122.891L234.867 121.15L233.305 111.562L215.109 113.823Z" fill="#FBF3F5" />
    <path d="M168.399 120.133L157.816 219.837L207.566 238.01L213.91 122.89L168.399 120.133Z" fill="#FFB75B" />
    <path d="M235.319 123.911L233.305 111.562L215.11 113.219L207.566 238.011L251.379 229.856L236.126 129.246"
        stroke="#303030" stroke-width="1.3" stroke-linejoin="round" />
    <path d="M237.609 221.352L251.378 229.856" stroke="#303030" stroke-width="1.3" stroke-linejoin="round" />
    <path d="M224.045 121.996L226.762 214.65L233.816 219.005" stroke="#303030" stroke-width="1.3"
        stroke-linejoin="round" />
    <path d="M223.838 112.906L224.045 121.993" stroke="#303030" stroke-width="1.3" stroke-linejoin="round" />
    <path d="M187.871 111.588L215.109 113.219" stroke="#303030" stroke-width="1.3" stroke-linejoin="round" />
    <path d="M159.482 202.972L169.42 110.631L183.534 111.43" stroke="#303030" stroke-width="1.3"
        stroke-linejoin="round" />
    <path d="M226.761 214.651L207.566 238.011L157.609 220.339L158.835 208.959" stroke="#303030" stroke-width="1.3"
        stroke-linejoin="round" />
    <path d="M168.604 120.078L204.04 122.221" stroke="#303030" stroke-width="1.3" stroke-linejoin="round" />
    <path d="M208.34 122.581L213.862 122.935L224.045 121.996L233.816 120.965" stroke="#303030" stroke-width="1.3"
        stroke-linejoin="round" />
    <path d="M169.42 110.63L185.169 108.789L233.305 111.561" stroke="#303030" stroke-width="1.3"
        stroke-linejoin="round" />
    <path
        d="M182.01 111.091C182.317 105.808 182.791 100.783 183.646 96.3646C183.946 94.8146 184.293 93.3383 184.697 91.9466C186.862 84.5169 190.66 79.6975 197.552 79.8779C209.026 80.1762 209.34 95.7498 208.341 112.84"
        stroke="#303030" stroke-width="1.3" stroke-linejoin="round" />
    <path
        d="M194.994 108.912C195.894 93.4671 198.518 80.4302 210.358 80.7763C221.832 81.1076 222.229 95.1902 221.325 110.631"
        stroke="#303030" stroke-width="1.3" stroke-linejoin="round" />
    <path d="M171.508 117.861H175.346" stroke="#FBF3F5" stroke-width="2.29" stroke-linejoin="round" />
    <path
        d="M248.544 70.2461C249.972 70.2461 249.972 68.0371 248.544 68.0371C247.115 68.0371 247.111 70.2461 248.544 70.2461Z"
        fill="#4C4C4C" />
    <path
        d="M240.456 62.2207C241.884 62.2207 241.888 60.0117 240.456 60.0117C239.023 60.0117 239.027 62.2207 240.456 62.2207Z"
        fill="#4C4C4C" />
    <path d="M255.617 55.17C257.046 55.17 257.05 52.9609 255.617 52.9609C254.185 52.9609 254.185 55.17 255.617 55.17Z"
        fill="#4C4C4C" />
    <path
        d="M137.69 46.5547C139.118 46.5547 139.122 44.3457 137.69 44.3457C136.257 44.3457 136.257 46.5547 137.69 46.5547Z"
        fill="#4C4C4C" />
    <path
        d="M129.613 38.5098C131.042 38.5098 131.046 36.3008 129.613 36.3008C128.181 36.3008 128.181 38.5098 129.613 38.5098Z"
        fill="#4C4C4C" />
    <path
        d="M144.77 31.4747C146.199 31.4747 146.203 29.2656 144.77 29.2656C143.338 29.2656 143.341 31.4747 144.77 31.4747Z"
        fill="#4C4C4C" />
    <path
        d="M285.158 143.277C286.587 143.277 286.591 141.068 285.158 141.068C283.726 141.068 283.726 143.277 285.158 143.277Z"
        fill="#4C4C4C" />
    <path
        d="M296.895 140.133C298.324 140.133 298.324 137.924 296.895 137.924C295.466 137.924 295.463 140.133 296.895 140.133Z"
        fill="#4C4C4C" />
    <path
        d="M355.576 26.9825C357.005 26.9825 357.009 24.7734 355.576 24.7734C354.144 24.7734 354.144 26.9825 355.576 26.9825Z"
        fill="#4C4C4C" />
    <path
        d="M367.313 23.8418C368.741 23.8418 368.745 21.6328 367.313 21.6328C365.88 21.6328 365.88 23.8418 367.313 23.8418Z"
        fill="#4C4C4C" />
    <path
        d="M117.421 286.002C118.849 286.002 118.849 283.793 117.421 283.793C115.992 283.793 115.988 286.002 117.421 286.002Z"
        fill="#4C4C4C" />
    <path
        d="M108.926 294.654C110.355 294.654 110.359 292.445 108.926 292.445C107.494 292.445 107.498 294.654 108.926 294.654Z"
        fill="#4C4C4C" />
    <path
        d="M180.158 247.893C181.587 247.893 181.591 245.684 180.158 245.684C178.726 245.684 178.726 247.893 180.158 247.893Z"
        fill="#4C4C4C" />
    <path
        d="M166.955 242.734C168.384 242.734 168.388 240.525 166.955 240.525C165.523 240.525 165.523 242.734 166.955 242.734Z"
        fill="#4C4C4C" />
    <path
        d="M177.782 251.346C179.211 251.346 179.211 249.137 177.782 249.137C176.353 249.137 176.349 251.346 177.782 251.346Z"
        fill="#4C4C4C" />
    <path
        d="M123.731 172.59C125.16 172.59 125.164 170.381 123.731 170.381C122.299 170.381 122.302 172.59 123.731 172.59Z"
        fill="#4C4C4C" />
    <path
        d="M126.762 182.141C128.195 182.141 128.195 179.932 126.762 179.932C125.33 179.932 125.334 182.141 126.762 182.141Z"
        fill="#4C4C4C" />
    <path
        d="M116.155 184.654C117.584 184.654 117.584 182.445 116.155 182.445C114.726 182.445 114.723 184.654 116.155 184.654Z"
        fill="#4C4C4C" />
    <path
        d="M343.969 280.104C345.398 280.104 345.401 277.895 343.969 277.895C342.536 277.895 342.536 280.104 343.969 280.104Z"
        fill="#4C4C4C" />
    <path d="M347 289.654C348.429 289.654 348.433 287.445 347 287.445C345.568 287.445 345.568 289.654 347 289.654Z"
        fill="#4C4C4C" />
    <path
        d="M336.387 292.168C337.816 292.168 337.819 289.959 336.387 289.959C334.954 289.959 334.954 292.168 336.387 292.168Z"
        fill="#4C4C4C" />
    <path
        d="M345.645 224.772C347.073 224.772 347.077 222.562 345.645 222.562C344.212 222.562 344.212 224.772 345.645 224.772Z"
        fill="#4C4C4C" />
    <path
        d="M360.995 229.264C362.424 229.264 362.424 227.055 360.995 227.055C359.566 227.055 359.562 229.264 360.995 229.264Z"
        fill="#4C4C4C" />
    <path
        d="M347.902 232.856C349.331 232.856 349.335 230.646 347.902 230.646C346.47 230.646 346.47 232.856 347.902 232.856Z"
        fill="#4C4C4C" />
</svg>