<svg xmlns="http://www.w3.org/2000/svg" version="1.1" viewBox="0 0 64 64"
  style="shape-rendering:geometricPrecision; text-rendering:geometricPrecision; image-rendering:optimizeQuality; fill-rule:evenodd; clip-rule:evenodd"
  xmlns:xlink="http://www.w3.org/1999/xlink">
  <g>
    <path style="opacity:0.805" fill="#e54334"
      d="M 21.5,27.5 C 18.8508,25.86 16.1841,24.1933 13.5,22.5C 20.5777,11.258 30.2444,8.42466 42.5,14C 43.7282,14.779 44.7282,15.779 45.5,17C 44.2237,19.2806 42.5571,21.2806 40.5,23C 32.8057,18.5545 26.4723,20.0545 21.5,27.5 Z" />
  </g>
  <g>
    <path style="opacity:0.804" fill="#f4b605"
      d="M 13.5,22.5 C 16.1841,24.1933 18.8508,25.86 21.5,27.5C 21.5,30.1667 21.5,32.8333 21.5,35.5C 18.8508,37.14 16.1841,38.8067 13.5,40.5C 10.8333,34.5 10.8333,28.5 13.5,22.5 Z" />
  </g>
  <g>
    <path style="opacity:0.83" fill="#4280ee"
      d="M 45.5,46.5 C 42.5677,45.2003 40.2344,43.2003 38.5,40.5C 39.8366,39.6851 40.8366,38.5185 41.5,37C 38.1832,36.5017 34.8499,36.335 31.5,36.5C 31.5,33.5 31.5,30.5 31.5,27.5C 38.1667,27.5 44.8333,27.5 51.5,27.5C 52.6722,34.9781 50.6722,41.3114 45.5,46.5 Z" />
  </g>
  <g>
    <path style="opacity:0.834" fill="#36a253"
      d="M 21.5,35.5 C 25.5666,42.5585 31.2333,44.2252 38.5,40.5C 40.2344,43.2003 42.5677,45.2003 45.5,46.5C 43.572,48.4741 41.2387,49.9741 38.5,51C 27.5151,53.5007 19.1817,50.0007 13.5,40.5C 16.1841,38.8067 18.8508,37.14 21.5,35.5 Z" />
  </g>
</svg>