<svg width="24" height="24" viewBox="0 0 24 24" fill="none" xmlns="http://www.w3.org/2000/svg">
<path d="M0 5.13714C0 4.50857 0.5352 4 1.194 4H10.806C11.1227 4 11.4264 4.11981 11.6503 4.33306C11.8742 4.54632 12 4.83555 12 5.13714C12 5.43873 11.8742 5.72797 11.6503 5.94122C11.4264 6.15448 11.1227 6.27429 10.806 6.27429H1.194C0.877331 6.27429 0.573633 6.15448 0.349715 5.94122C0.125796 5.72797 0 5.43873 0 5.13714ZM0 12C0 11.3714 0.5352 10.8629 1.194 10.8629H22.806C23.1227 10.8629 23.4264 10.9827 23.6503 11.1959C23.8742 11.4092 24 11.6984 24 12C24 12.3016 23.8742 12.5908 23.6503 12.8041C23.4264 13.0173 23.1227 13.1371 22.806 13.1371H1.194C0.877331 13.1371 0.573633 13.0173 0.349715 12.8041C0.125796 12.5908 0 12.3016 0 12ZM1.194 17.7257C0.877331 17.7257 0.573633 17.8455 0.349715 18.0588C0.125796 18.272 0 18.5613 0 18.8629C0 19.1644 0.125796 19.4537 0.349715 19.6669C0.573633 19.8802 0.877331 20 1.194 20H15.606C15.9227 20 16.2264 19.8802 16.4503 19.6669C16.6742 19.4537 16.8 19.1644 16.8 18.8629C16.8 18.5613 16.6742 18.272 16.4503 18.0588C16.2264 17.8455 15.9227 17.7257 15.606 17.7257H1.194Z" fill="black"/>
</svg>
