<svg  viewBox="0 0 10 13" fill="none" xmlns="http://www.w3.org/2000/svg">
<path d="M7.37788 3.36V3.632H9.44188V4.688H7.29788C7.20188 5.424 6.98854 6 6.65788 6.416C6.33788 6.832 5.86854 7.13067 5.24988 7.312C4.64188 7.49333 3.83121 7.584 2.81788 7.584V8.848C2.81788 10.288 3.44721 11.008 4.70588 11.008C5.94321 11.008 6.56188 10.3147 6.56188 8.928H7.90588C7.89521 9.99467 7.61254 10.8 7.05788 11.344C6.50321 11.888 5.71388 12.16 4.68988 12.16C3.63388 12.16 2.82854 11.8667 2.27387 11.28C1.72988 10.6933 1.45788 9.872 1.45788 8.816V6.56C2.67388 6.56 3.56988 6.52267 4.14587 6.448C4.73254 6.36267 5.15921 6.192 5.42588 5.936C5.69254 5.66933 5.86321 5.25333 5.93788 4.688H0.737875V3.632H6.00188V3.344V1.904H0.737875V0.832H9.44188V1.904H7.37788V3.36Z" fill="black"/>
</svg>
