<svg viewBox="0 0 18 18" fill="none" xmlns="http://www.w3.org/2000/svg">
<path d="M9.1704 1.44143C6.48974 1.4344 4.13075 2.82132 2.78251 4.91663C2.72274 5.00979 2.78954 5.13284 2.90028 5.13284H4.13603C4.2204 5.13284 4.2995 5.09593 4.35224 5.03089C4.47528 4.88147 4.60712 4.73733 4.74599 4.60022C5.31903 4.02893 5.98524 3.57893 6.72704 3.26604C7.49345 2.9426 8.30907 2.77737 9.15106 2.77737C9.99306 2.77737 10.8087 2.94085 11.5751 3.26604C12.3169 3.57893 12.9831 4.02893 13.5561 4.60022C14.1292 5.17151 14.5774 5.83772 14.8921 6.57776C15.2173 7.34417 15.3808 8.15803 15.3808 9.00003C15.3808 9.84202 15.2155 10.6559 14.8921 11.4223C14.5792 12.1623 14.1292 12.8285 13.5561 13.3998C12.9831 13.9711 12.3169 14.4211 11.5751 14.734C10.8081 15.058 9.98368 15.2242 9.15106 15.2227C8.30907 15.2227 7.49345 15.0574 6.72704 14.734C5.9867 14.4214 5.31395 13.9684 4.74599 13.3998C4.60712 13.261 4.47704 13.1168 4.35224 12.9692C4.2995 12.9041 4.21864 12.8672 4.13603 12.8672H2.90028C2.78954 12.8672 2.72099 12.9903 2.78251 13.0834C4.12899 15.1735 6.47743 16.5586 9.15106 16.5586C13.303 16.5586 16.6745 13.217 16.7167 9.07737C16.7589 4.87093 13.3821 1.45198 9.1704 1.44143ZM6.9436 10.9688V9.63284H1.42407C1.34673 9.63284 1.28345 9.56956 1.28345 9.49221V8.50784C1.28345 8.4305 1.34673 8.36721 1.42407 8.36721H6.9436V7.03128C6.9436 6.9135 7.08071 6.84671 7.17212 6.92054L9.66646 8.88929C9.68326 8.90244 9.69686 8.91925 9.7062 8.93843C9.71555 8.95762 9.72041 8.97868 9.72041 9.00003C9.72041 9.02137 9.71555 9.04243 9.7062 9.06162C9.69686 9.08081 9.68326 9.09761 9.66646 9.11077L7.17212 11.0795C7.08071 11.1516 6.9436 11.0866 6.9436 10.9688Z" fill="#222222"/>
</svg>
