<svg width="18" height="18" viewBox="0 0 18 18" fill="none" xmlns="http://www.w3.org/2000/svg">
  <path
    d="M15.257 12.868h-1.235c-0.084 0 -0.164 0.037 -0.216 0.101a6.221 6.221 0 0 1 -4.799 2.253 6.202 6.202 0 0 1 -4.405 -1.822 6.21 6.21 0 0 1 -1.336 -1.978A6.162 6.162 0 0 1 2.778 9a6.193 6.193 0 0 1 1.825 -4.4 6.22 6.22 0 0 1 4.405 -1.822 6.221 6.221 0 0 1 4.799 2.253c0.052 0.065 0.133 0.101 0.216 0.101h1.235c0.111 0 0.18 -0.123 0.118 -0.216a7.562 7.562 0 0 0 -6.388 -3.475 7.55 7.55 0 0 0 -7.546 7.636c0.042 4.14 3.413 7.481 7.566 7.481a7.564 7.564 0 0 0 6.368 -3.475 0.141 0.141 0 0 0 -0.118 -0.216Zm1.563 -3.978L14.326 6.92a0.141 0.141 0 0 0 -0.229 0.111v1.336h-5.519a0.141 0.141 0 0 0 -0.14 0.14v0.985c0 0.077 0.063 0.14 0.14 0.14h5.519v1.336c0 0.118 0.137 0.185 0.229 0.111l2.494 -1.969a0.142 0.142 0 0 0 0.04 -0.172 0.142 0.142 0 0 0 -0.04 -0.049Z"
    fill="#222222" />
</svg>