<svg viewBox="0 0 25 25" fill="none" xmlns="http://www.w3.org/2000/svg">
<path d="M15.6528 13.8997C17.6523 12.6719 18.9926 10.4762 18.9926 7.96897C18.9926 4.12628 15.8555 1 12 1C8.14451 1 5.00742 4.12628 5.00742 7.96897C5.00742 10.4762 6.34766 12.6719 8.34721 13.8997C4.02965 14.8648 1 17.5014 1 20.6922C1 23.3032 7.91474 24 12 24C16.0853 24 23 23.3032 23 20.6922C23 17.5014 19.9703 14.8648 15.6528 13.8997ZM6.44795 7.96897C6.44795 4.91897 8.93887 2.4375 12 2.4375C15.0611 2.4375 17.5521 4.91897 17.5521 7.96897C17.5521 11.019 15.0611 13.5 12 13.5C8.93887 13.5 6.44795 11.019 6.44795 7.96897ZM12 22.5625C6.12744 22.5625 2.61216 21.3263 2.44094 20.6873C2.4454 17.5165 6.73206 14.9375 12 14.9375C17.2674 14.9375 21.5537 17.516 21.559 20.6864C21.3921 21.3249 17.8764 22.5625 12 22.5625Z" fill="#1D1D1B"/>
</svg>
