<svg width="25" height="26" viewBox="0 0 25 26" fill="none" xmlns="http://www.w3.org/2000/svg">
  <path fill-rule="evenodd" clip-rule="evenodd"
    d="M6.22249 1.8999H6.49995H18.5H18.7774L18.9571 2.11132L22.2093 5.93745C22.4374 6.0224 22.5999 6.24218 22.5999 6.4999V21.4999C22.5999 22.9358 21.4358 24.0999 19.9999 24.0999H4.9999C3.56396 24.0999 2.3999 22.9358 2.3999 21.4999V6.4999C2.3999 6.24219 2.56238 6.02242 2.7905 5.93746L6.04279 2.11131L6.22249 1.8999ZM18.2225 3.0999L20.6024 5.8999H4.39736L6.77741 3.0999H18.2225ZM3.5999 7.0999V21.4999C3.5999 22.2731 4.2267 22.8999 4.9999 22.8999H19.9999C20.7731 22.8999 21.3999 22.2731 21.3999 21.4999V7.0999H3.5999ZM9.1003 10.9981C9.09931 10.6675 8.83102 10.3999 8.50025 10.3999C8.16887 10.3999 7.90027 10.6686 7.90031 11L8.50021 10.9999C7.90031 11 7.90031 11.0003 7.90031 11.0006L7.90031 11.0013L7.90031 11.0031L7.90034 11.0076L7.90051 11.0211C7.90068 11.032 7.90101 11.0467 7.90162 11.0649C7.90284 11.1012 7.90517 11.1518 7.90966 11.2146C7.91863 11.3399 7.93626 11.515 7.97103 11.7236C8.04012 12.1379 8.17937 12.6994 8.46381 13.2683C8.74942 13.8394 9.18724 14.4288 9.85515 14.8741C10.5268 15.3219 11.3954 15.5999 12.5003 15.5999C13.6052 15.5999 14.4738 15.3219 15.1455 14.8741C15.8134 14.4288 16.2512 13.8394 16.5368 13.2683C16.8212 12.6994 16.9605 12.1379 17.0296 11.7236C17.0644 11.515 17.082 11.3399 17.0909 11.2146C17.0954 11.1518 17.0978 11.1012 17.099 11.0649C17.0996 11.0467 17.0999 11.032 17.1001 11.0211L17.1003 11.0076L17.1003 11.0031L17.1003 11.0013L17.1003 11.0006C17.1003 11.0003 17.1003 11 16.5003 10.9999L17.1003 11C17.1003 10.6686 16.8317 10.3999 16.5004 10.3999C16.1692 10.3999 15.9007 10.6681 15.9003 10.9992C15.9003 10.9992 15.9003 10.9992 15.9003 10.9992C15.9003 10.9992 15.9003 10.9993 15.9003 10.9993C15.9003 10.9996 15.9003 10.9998 16.5 10.9999L15.9003 10.9998L15.9003 11.0016L15.8997 11.0248C15.8989 11.047 15.8973 11.0824 15.894 11.129C15.8873 11.2224 15.8737 11.3598 15.8459 11.5262C15.7899 11.8619 15.6791 12.3004 15.4635 12.7316C15.2491 13.1604 14.9369 13.571 14.4798 13.8757C14.0265 14.1779 13.3952 14.3999 12.5003 14.3999C11.6054 14.3999 10.9741 14.1779 10.5208 13.8757C10.0638 13.571 9.75154 13.1604 9.5371 12.7316C9.32149 12.3004 9.21067 11.8619 9.15469 11.5262C9.12694 11.3598 9.11329 11.2224 9.10661 11.129C9.10327 11.0824 9.1017 11.047 9.10095 11.0248L9.10035 11.0016L9.10031 10.9993L9.10031 10.9988L9.1003 10.9982V10.9981ZM9.10031 10.9993L9.10031 10.9998L8.50031 10.9999C9.10031 10.9998 9.10031 10.9996 9.10031 10.9993Z"
    fill="black" />
</svg>