<svg width="15" height="18" viewBox="0 0 15 18" fill="none" xmlns="http://www.w3.org/2000/svg">
  <path fill-rule="evenodd" clip-rule="evenodd"
    d="M5.13709 7.55788C5.1364 7.31962 4.94993 7.12671 4.72002 7.12673C4.4897 7.12676 4.30301 7.3204 4.30303 7.55925L4.72 7.55921C4.30303 7.55925 4.30303 7.55925 4.30303 7.55925L4.30304 7.56148L4.30306 7.56477L4.30317 7.5745C4.3033 7.58235 4.30353 7.59292 4.30395 7.60604C4.30479 7.63226 4.30642 7.66871 4.30954 7.71395C4.31577 7.80428 4.32802 7.9305 4.35219 8.08084C4.40021 8.37945 4.497 8.78422 4.6947 9.19422C4.89321 9.60591 5.19751 10.0308 5.66175 10.3517C6.12859 10.6745 6.7323 10.8749 7.50026 10.8749C8.26822 10.8749 8.87193 10.6745 9.33878 10.3517C9.80301 10.0308 10.1073 9.60591 10.3058 9.19422C10.5035 8.78422 10.6003 8.37945 10.6483 8.08084C10.6725 7.9305 10.6848 7.80428 10.691 7.71395C10.6941 7.66871 10.6957 7.63226 10.6966 7.60604C10.697 7.59292 10.6972 7.58235 10.6973 7.5745L10.6975 7.56477L10.6975 7.56148L10.6975 7.56023C10.6975 7.56023 10.6975 7.55925 10.2805 7.55921L10.6975 7.56023C10.6975 7.32138 10.5108 7.12676 10.2805 7.12673C10.0503 7.12671 9.8637 7.32006 9.86343 7.55869C9.86343 7.55869 9.86364 7.55917 10.2805 7.55921L9.86343 7.55869L9.8634 7.56046L9.86298 7.57714C9.86246 7.59316 9.86137 7.61865 9.85905 7.65224C9.85441 7.71958 9.84492 7.81861 9.82563 7.93857C9.78672 8.18055 9.7097 8.49658 9.55983 8.80737C9.41079 9.11647 9.19378 9.41241 8.87611 9.63204C8.56105 9.84987 8.12226 10.0099 7.50026 10.0099C6.87826 10.0099 6.43947 9.84987 6.12441 9.63204C5.80674 9.41241 5.58973 9.11647 5.44069 8.80737C5.29083 8.49658 5.2138 8.18055 5.17489 7.93857C5.1556 7.81861 5.14612 7.71958 5.14147 7.65224C5.13915 7.61865 5.13806 7.59316 5.13754 7.57714L5.13712 7.56046L5.13709 7.55788ZM5.13709 7.55788L4.72 7.55921C5.13703 7.55917 5.13709 7.55788 5.13709 7.55788Z"
    fill="black" />
  <path fill-rule="evenodd" clip-rule="evenodd"
    d="M3.13687 1H11.8632L14.2485 3.91023C14.407 3.97147 14.52 4.12988 14.52 4.31564V15.1275C14.52 16.1625 13.7109 17.0016 12.7129 17.0016H2.28711C1.28906 17.0016 0.47998 16.1625 0.47998 15.1275V4.31564C0.47998 4.12989 0.592913 3.97148 0.751462 3.91024L3.13687 1ZM11.4775 1.86495L13.1317 3.88317H1.86831L3.52257 1.86495H11.4775ZM1.31404 4.74812V15.1275C1.31404 15.6848 1.7497 16.1366 2.28711 16.1366H12.7129C13.2503 16.1366 13.6859 15.6848 13.6859 15.1275V4.74812H1.31404Z"
    fill="black" />
  <path
    d="M5.13709 7.55788C5.1364 7.31962 4.94993 7.12671 4.72002 7.12673C4.4897 7.12676 4.30301 7.3204 4.30303 7.55925M5.13709 7.55788L5.13712 7.56046L5.13754 7.57714C5.13806 7.59316 5.13915 7.61865 5.14147 7.65224C5.14612 7.71958 5.1556 7.81861 5.17489 7.93857C5.2138 8.18055 5.29083 8.49658 5.44069 8.80737C5.58973 9.11647 5.80674 9.41241 6.12441 9.63204C6.43947 9.84987 6.87826 10.0099 7.50026 10.0099C8.12226 10.0099 8.56105 9.84987 8.87611 9.63204C9.19378 9.41241 9.41079 9.11647 9.55983 8.80737C9.7097 8.49658 9.78672 8.18055 9.82563 7.93857C9.84492 7.81861 9.85441 7.71958 9.85905 7.65224C9.86137 7.61865 9.86246 7.59316 9.86298 7.57714L9.8634 7.56046L9.86343 7.55869M5.13709 7.55788L4.72 7.55921M5.13709 7.55788C5.13709 7.55788 5.13703 7.55916 4.72 7.55921M4.30303 7.55925L4.72 7.55921M4.30303 7.55925C4.30303 7.55925 4.30303 7.55925 4.72 7.55921M4.30303 7.55925L4.30304 7.56148L4.30306 7.56477L4.30317 7.5745C4.3033 7.58235 4.30353 7.59292 4.30395 7.60604C4.30479 7.63225 4.30642 7.66871 4.30954 7.71395C4.31577 7.80428 4.32802 7.9305 4.35219 8.08084C4.40021 8.37945 4.497 8.78422 4.6947 9.19422C4.89321 9.60591 5.19751 10.0308 5.66175 10.3517C6.12859 10.6745 6.7323 10.8749 7.50026 10.8749C8.26822 10.8749 8.87193 10.6745 9.33878 10.3517C9.80301 10.0308 10.1073 9.60591 10.3058 9.19422C10.5035 8.78422 10.6003 8.37945 10.6483 8.08084C10.6725 7.9305 10.6848 7.80428 10.691 7.71395C10.6941 7.66871 10.6957 7.63225 10.6966 7.60604C10.697 7.59292 10.6972 7.58235 10.6973 7.5745L10.6975 7.56477L10.6975 7.56148L10.6975 7.56023M10.6975 7.56023C10.6975 7.56023 10.6975 7.55925 10.2805 7.55921M10.6975 7.56023L10.2805 7.55921M10.6975 7.56023C10.6975 7.32138 10.5108 7.12676 10.2805 7.12673C10.0503 7.12671 9.8637 7.32006 9.86343 7.55869M10.2805 7.55921C9.86364 7.55916 9.86343 7.55869 9.86343 7.55869M10.2805 7.55921L9.86343 7.55869M3.13687 1H11.8632L14.2485 3.91023C14.407 3.97147 14.52 4.12988 14.52 4.31564V15.1275C14.52 16.1625 13.7109 17.0016 12.7129 17.0016H2.28711C1.28906 17.0016 0.47998 16.1625 0.47998 15.1275V4.31564C0.47998 4.12989 0.592913 3.97148 0.751462 3.91024L3.13687 1ZM13.1317 3.88317L11.4775 1.86495H3.52257L1.86831 3.88317H13.1317ZM1.31404 15.1275V4.74812H13.6859V15.1275C13.6859 15.6848 13.2503 16.1366 12.7129 16.1366H2.28711C1.7497 16.1366 1.31404 15.6848 1.31404 15.1275Z"
    stroke="black" stroke-width="0.3" stroke-linecap="round" />
</svg>