<svg width="140" height="140" viewBox="0 0 140 140" fill="none" xmlns="http://www.w3.org/2000/svg">
  <path
    d="M63.5777 7.96927C67.1053 4.37598 72.8947 4.37598 76.4223 7.96927L82.7238 14.388C85.2407 16.9517 88.851 18.1248 92.3942 17.5301L101.265 16.0411C106.231 15.2076 110.915 18.6105 111.657 23.591L112.982 32.4878C113.511 36.0413 115.742 39.1124 118.958 40.7139L127.01 44.7234C131.518 46.968 133.307 52.4741 130.979 56.9395L126.822 64.916C125.162 68.1019 125.162 71.898 126.822 75.084L130.979 83.0605C133.307 87.5259 131.518 93.032 127.01 95.2766L118.958 99.2861C115.742 100.888 113.511 103.959 112.982 107.512L111.657 116.409C110.915 121.389 106.231 124.792 101.265 123.959L92.3942 122.47C88.851 121.875 85.2407 123.048 82.7238 125.612L76.4223 132.031C72.8947 135.624 67.1053 135.624 63.5777 132.031L57.2762 125.612C54.7593 123.048 51.149 121.875 47.6058 122.47L38.735 123.959C33.769 124.792 29.0853 121.389 28.3435 116.409L27.0183 107.512C26.489 103.959 24.2577 100.888 21.0417 99.2861L12.9899 95.2766C8.48236 93.032 6.69334 87.5259 9.02065 83.0605L13.1779 75.084C14.8384 71.8981 14.8384 68.102 13.1779 64.916L9.02065 56.9395C6.69334 52.4741 8.48236 46.968 12.9899 44.7234L21.0417 40.7139C24.2577 39.1124 26.489 36.0413 27.0183 32.4878L28.3435 23.591C29.0853 18.6105 33.769 15.2076 38.735 16.0411L47.6058 17.5301C51.149 18.1248 54.7593 16.9517 57.2762 14.388L63.5777 7.96927Z"
    fill="#D8F055" stroke="black" stroke-width="2" />
  <path
    d="M36.8409 68.4766C36.1549 68.4766 35.4549 68.3716 34.7409 68.1616C34.0269 67.9516 33.6559 67.8466 33.6279 67.8466C33.5439 67.8466 33.4459 67.8886 33.3339 67.9726C33.2219 68.0566 33.1659 68.1546 33.1659 68.2666H32.6829V64.9486H33.1449C33.2989 65.7746 33.7609 66.4536 34.5309 66.9856C35.3009 67.5036 36.0289 67.7626 36.7149 67.7626C37.4149 67.7626 37.9749 67.5806 38.3949 67.2166C38.8289 66.8386 39.0459 66.3486 39.0459 65.7466C39.0459 65.5366 38.9759 65.3336 38.8359 65.1376C38.7099 64.9276 38.4999 64.7176 38.2059 64.5076C37.9259 64.2836 37.6739 64.1016 37.4499 63.9616C37.2259 63.8076 36.8969 63.6046 36.4629 63.3526C36.0429 63.1006 35.7419 62.9186 35.5599 62.8066C33.6559 61.6306 32.7039 60.3706 32.7039 59.0266C32.7039 58.2006 33.0819 57.4516 33.8379 56.7796C34.5939 56.1076 35.4409 55.7716 36.3789 55.7716C36.7989 55.7716 37.3099 55.8766 37.9119 56.0866C38.5139 56.2966 38.8499 56.4016 38.9199 56.4016C39.0879 56.4016 39.1719 56.2616 39.1719 55.9816H39.6549L39.8649 59.1526H39.4029C39.3189 58.5786 38.9409 57.9906 38.2689 57.3886C37.5969 56.7866 36.9739 56.4856 36.3999 56.4856C35.7699 56.4856 35.2939 56.6886 34.9719 57.0946C34.6499 57.4866 34.4889 57.9066 34.4889 58.3546C34.4889 58.5366 34.5519 58.7186 34.6779 58.9006C34.8039 59.0686 35.0069 59.2576 35.2869 59.4676C35.5669 59.6776 35.8119 59.8526 36.0219 59.9926C36.2319 60.1186 36.5539 60.3076 36.9879 60.5596C37.4219 60.8116 37.7229 60.9866 37.8909 61.0846C38.8569 61.6726 39.6129 62.2816 40.1589 62.9116C40.7049 63.5416 40.9779 64.2906 40.9779 65.1586C40.9779 66.1946 40.5579 67.0066 39.7179 67.5946C38.8779 68.1826 37.9189 68.4766 36.8409 68.4766ZM41.6696 55.9816H52.5266V58.0186H52.0856C52.0856 57.3466 51.8406 56.9056 51.3506 56.6956H48.4316V67.4056C48.5576 67.6856 48.9986 67.8256 49.7546 67.8256V68.2666H44.4416V67.8256C45.1976 67.8256 45.6386 67.6856 45.7646 67.4056V56.6956H42.8456C42.3556 56.9056 42.1106 57.3466 42.1106 58.0186H41.6696V55.9816ZM53.5549 68.2666V67.8256C54.3109 67.8256 54.7519 67.6856 54.8779 67.4056V56.8426C54.7519 56.5626 54.3109 56.4226 53.5549 56.4226V55.9816H58.8679V56.4226C58.1119 56.4226 57.6709 56.5626 57.5449 56.8426V67.4056C57.6709 67.6856 58.1119 67.8256 58.8679 67.8256V68.2666H53.5549ZM66.814 56.4856C65.638 56.4856 64.728 56.9686 64.084 57.9346C63.454 58.9006 63.139 60.2026 63.139 61.8406C63.139 63.7446 63.482 65.2076 64.168 66.2296C64.854 67.2516 65.764 67.7626 66.898 67.7626C67.584 67.7626 68.207 67.5316 68.767 67.0696C69.341 66.5936 69.733 66.0686 69.943 65.4946L70.804 65.7466C70.482 66.5166 69.971 67.1676 69.271 67.6996C68.585 68.2176 67.654 68.4766 66.478 68.4766C64.602 68.4766 63.09 67.8676 61.942 66.6496C60.794 65.4316 60.22 63.9826 60.22 62.3026C60.22 60.3566 60.878 58.7816 62.194 57.5776C63.51 56.3736 65.043 55.7716 66.793 55.7716C67.199 55.7716 67.703 55.8766 68.305 56.0866C68.907 56.2966 69.25 56.4016 69.334 56.4016C69.502 56.4016 69.586 56.2616 69.586 55.9816H70.069L70.237 58.9426H69.775C69.691 58.3686 69.327 57.8156 68.683 57.2836C68.039 56.7516 67.416 56.4856 66.814 56.4856ZM72.012 68.2666V67.8256C72.768 67.8256 73.209 67.6856 73.335 67.4056V56.8426C73.209 56.5626 72.768 56.4226 72.012 56.4226V55.9816H77.283V56.4226C76.527 56.4226 76.086 56.5626 75.96 56.8426V67.4056C76.086 67.6856 76.527 67.8256 77.283 67.8256V68.2666H72.012ZM80.076 68.2666V67.8256C80.412 67.8256 80.671 67.8046 80.853 67.7626L76.065 61.6726L81.21 56.5696C81.014 56.4716 80.657 56.4226 80.139 56.4226V55.9816H83.436V56.4226C83.31 56.4226 83.198 56.4296 83.1 56.4436C83.002 56.4436 82.911 56.4576 82.827 56.4856C82.743 56.5136 82.673 56.5346 82.617 56.5486C82.561 56.5626 82.505 56.5906 82.449 56.6326C82.393 56.6746 82.351 56.7026 82.323 56.7166C82.309 56.7306 82.274 56.7656 82.218 56.8216L82.134 56.9056L78.312 60.6646L83.583 67.4896C83.765 67.7136 84.206 67.8256 84.906 67.8256V68.2666H80.076ZM85.178 68.2666V67.8256C85.934 67.8256 86.375 67.6856 86.501 67.4056V56.8426C86.375 56.5626 85.934 56.4226 85.178 56.4226V55.9816H93.851V58.0186H93.41C93.41 57.2626 93.27 56.8216 92.99 56.6956H89.168V61.5256H91.583C91.863 61.3996 92.003 60.9586 92.003 60.2026H92.444V63.5626H92.003C92.003 62.8066 91.863 62.3656 91.583 62.2396H89.168V67.5526H93.431C93.781 67.3986 94.096 66.9576 94.376 66.2296H94.796L94.292 68.2666H85.178ZM95.7395 68.2666V67.8256C96.4955 67.8256 96.9365 67.6856 97.0625 67.4056V56.8426C96.9365 56.5626 96.4955 56.4226 95.7395 56.4226V55.9816H100.906C102.642 55.9816 103.958 56.2966 104.854 56.9266C105.75 57.5566 106.198 58.2776 106.198 59.0896C106.198 59.8596 105.967 60.5386 105.505 61.1266C105.043 61.7006 104.357 62.1206 103.447 62.3866L106.24 67.3846C106.38 67.6786 106.842 67.8256 107.626 67.8256V68.2666H106.723C105.617 68.2666 104.798 68.2036 104.266 68.0776C103.748 67.9516 103.356 67.6506 103.09 67.1746L100.549 62.6806H99.7295V67.4056C99.8555 67.6856 100.297 67.8256 101.053 67.8256V68.2666H95.7395ZM99.7295 56.6956V61.9666H100.423C101.375 61.9666 102.103 61.7566 102.607 61.3366C103.111 60.9026 103.363 60.1606 103.363 59.1106C103.363 58.2986 103.076 57.6966 102.502 57.3046C101.942 56.8986 101.165 56.6956 100.171 56.6956H99.7295ZM51.9683 75.8006C51.8283 75.5486 51.3943 75.4226 50.6663 75.4226V74.9816H54.1103V75.4226C53.3403 75.4226 52.8993 75.5696 52.7873 75.8636L48.7133 87.2666H47.0123L42.8963 75.8636C42.7983 75.5696 42.3503 75.4226 41.5523 75.4226V74.9816H46.8863V75.4226C46.2423 75.4226 45.8363 75.5066 45.6683 75.6746L48.8813 84.4736L51.9683 75.8006ZM54.5598 87.2666V86.8256C55.3158 86.8256 55.7568 86.6856 55.8828 86.4056V75.8426C55.7568 75.5626 55.3158 75.4226 54.5598 75.4226V74.9816H63.2328V77.0186H62.7918C62.7918 76.2626 62.6518 75.8216 62.3718 75.6956H58.5498V80.5256H60.9648C61.2448 80.3996 61.3848 79.9586 61.3848 79.2026H61.8258V82.5626H61.3848C61.3848 81.8066 61.2448 81.3656 60.9648 81.2396H58.5498V86.5526H62.8128C63.1628 86.3986 63.4778 85.9576 63.7578 85.2296H64.1778L63.6738 87.2666H54.5598ZM65.1214 87.2666V86.8256C65.8774 86.8256 66.3184 86.6856 66.4444 86.4056V75.8426C66.3184 75.5626 65.8774 75.4226 65.1214 75.4226V74.9816H70.2874C72.0234 74.9816 73.3394 75.2966 74.2354 75.9266C75.1314 76.5566 75.5794 77.2776 75.5794 78.0896C75.5794 78.8596 75.3484 79.5386 74.8864 80.1266C74.4244 80.7006 73.7384 81.1206 72.8284 81.3866L75.6214 86.3846C75.7614 86.6786 76.2234 86.8256 77.0074 86.8256V87.2666H76.1044C74.9984 87.2666 74.1794 87.2036 73.6474 87.0776C73.1294 86.9516 72.7374 86.6506 72.4714 86.1746L69.9304 81.6806H69.1114V86.4056C69.2374 86.6856 69.6784 86.8256 70.4344 86.8256V87.2666H65.1214ZM69.1114 75.6956V80.9666H69.8044C70.7564 80.9666 71.4844 80.7566 71.9884 80.3366C72.4924 79.9026 72.7444 79.1606 72.7444 78.1106C72.7444 77.2986 72.4574 76.6966 71.8834 76.3046C71.3234 75.8986 70.5464 75.6956 69.5524 75.6956H69.1114ZM81.8556 87.4766C81.1696 87.4766 80.4696 87.3716 79.7556 87.1616C79.0416 86.9516 78.6706 86.8466 78.6426 86.8466C78.5586 86.8466 78.4606 86.8886 78.3486 86.9726C78.2366 87.0566 78.1806 87.1546 78.1806 87.2666H77.6976V83.9486H78.1596C78.3136 84.7746 78.7756 85.4536 79.5456 85.9856C80.3156 86.5036 81.0436 86.7626 81.7296 86.7626C82.4296 86.7626 82.9896 86.5806 83.4096 86.2166C83.8436 85.8386 84.0606 85.3486 84.0606 84.7466C84.0606 84.5366 83.9906 84.3336 83.8506 84.1376C83.7246 83.9276 83.5146 83.7176 83.2206 83.5076C82.9406 83.2836 82.6886 83.1016 82.4646 82.9616C82.2406 82.8076 81.9116 82.6046 81.4776 82.3526C81.0576 82.1006 80.7566 81.9186 80.5746 81.8066C78.6706 80.6306 77.7186 79.3706 77.7186 78.0266C77.7186 77.2006 78.0966 76.4516 78.8526 75.7796C79.6086 75.1076 80.4556 74.7716 81.3936 74.7716C81.8136 74.7716 82.3246 74.8766 82.9266 75.0866C83.5286 75.2966 83.8646 75.4016 83.9346 75.4016C84.1026 75.4016 84.1866 75.2616 84.1866 74.9816H84.6696L84.8796 78.1526H84.4176C84.3336 77.5786 83.9556 76.9906 83.2836 76.3886C82.6116 75.7866 81.9886 75.4856 81.4146 75.4856C80.7846 75.4856 80.3086 75.6886 79.9866 76.0946C79.6646 76.4866 79.5036 76.9066 79.5036 77.3546C79.5036 77.5366 79.5666 77.7186 79.6926 77.9006C79.8186 78.0686 80.0216 78.2576 80.3016 78.4676C80.5816 78.6776 80.8266 78.8526 81.0366 78.9926C81.2466 79.1186 81.5686 79.3076 82.0026 79.5596C82.4366 79.8116 82.7376 79.9866 82.9056 80.0846C83.8716 80.6726 84.6276 81.2816 85.1736 81.9116C85.7196 82.5416 85.9926 83.2906 85.9926 84.1586C85.9926 85.1946 85.5726 86.0066 84.7326 86.5946C83.8926 87.1826 82.9336 87.4766 81.8556 87.4766ZM87.3518 87.2666V86.8256C88.1078 86.8256 88.5488 86.6856 88.6748 86.4056V75.8426C88.5488 75.5626 88.1078 75.4226 87.3518 75.4226V74.9816H96.0248V77.0186H95.5838C95.5838 76.2626 95.4438 75.8216 95.1638 75.6956H91.3418V80.5256H93.7568C94.0368 80.3996 94.1768 79.9586 94.1768 79.2026H94.6178V82.5626H94.1768C94.1768 81.8066 94.0368 81.3656 93.7568 81.2396H91.3418V86.5526H95.6048C95.9548 86.3986 96.2698 85.9576 96.5498 85.2296H96.9698L96.4658 87.2666H87.3518Z"
    fill="black" />
</svg>